<?xml version="1.0" ?><!-- Uploaded to: SVG Repo, www.svgrepo.com, Generator: SVG Repo Mixer Tools -->
<svg width="800px" height="800px" viewBox="0 0 64 64" data-name="Layer 1" id="Layer_1" xmlns="http://www.w3.org/2000/svg"><defs><style>
      .cls-1 {
        fill: #ffbc0a;
      }

      .cls-2 {
        fill: #8b8c89;
      }

      .cls-3 {
        fill: #a3cef1;
      }

      .cls-4 {
        fill: #6096ba;
      }

      .cls-5 {
        fill: #274c77;
      }
    </style></defs><polygon class="cls-1" points="32 6 32.94 9.06 36 9.06 33.53 10.94 34.47 14 32 12.11 29.53 14 30.47 10.94 28 9.06 31.06 9.06 32 6"/><polygon class="cls-1" points="21 12 21.94 15.06 25 15.06 22.53 16.94 23.47 20 21 18.11 18.53 20 19.47 16.94 17 15.06 20.06 15.06 21 12"/><polygon class="cls-1" points="43 12 43.94 15.06 47 15.06 44.53 16.94 45.47 20 43 18.11 40.53 20 41.47 16.94 39 15.06 42.06 15.06 43 12"/><path class="cls-5" d="M37,53c0,2.76-2.24,5-5,5s-5-2.24-5-5"/><ellipse class="cls-3" cx="32" cy="26" rx="15" ry="4"/><path class="cls-1" d="M37.55,29.71c-.9-2.17-3.05-3.71-5.55-3.71s-4.65,1.54-5.55,3.71c1.72,.19,3.59,.29,5.55,.29s3.83-.1,5.55-.29Z"/><path class="cls-5" d="M37,49l9.6-22.08c-1.56,1.77-7.51,3.08-14.6,3.08s-13.04-1.31-14.6-3.08l9.6,22.08"/><path class="cls-2" d="M38,50.59v2.41h-1c0,.49-.07,.95-.2,1.4,.99,.39,2.07,.6,3.2,.6,4.97,0,9-4.03,9-9,0-4.24-2.94-7.8-6.89-8.75l-1.64,3.78c2.54,.23,4.53,2.37,4.53,4.97,0,2.76-2.24,5-5,5-.71,0-1.39-.15-2-.41Z"/><rect class="cls-4" height="4" width="12" x="26" y="49"/></svg>